G04 Layer_Color=32896*
%FSLAX24Y24*%
%MOIN*%
G70*
G01*
G75*
%ADD27C,0.0079*%
%ADD29C,0.0100*%
%ADD43C,0.0020*%
G54D27*
X-5579Y1638D02*
X-5421D01*
X-5579Y1362D02*
X-5421D01*
X-4079D02*
X-3921D01*
X-4079Y1638D02*
X-3921D01*
X-2579D02*
X-2421D01*
X-2579Y1362D02*
X-2421D01*
G54D29*
X1425Y-1505D02*
X2025D01*
Y-1205D01*
X1925Y-1105D01*
X1725D01*
X1625Y-1205D01*
Y-1505D01*
Y-1305D02*
X1425Y-1105D01*
Y-605D02*
X2025D01*
X1725Y-905D01*
Y-505D01*
X-5105Y2035D02*
Y2635D01*
X-5405D01*
X-5505Y2535D01*
Y2335D01*
X-5405Y2235D01*
X-5105D01*
X-5305D02*
X-5505Y2035D01*
X-5705Y2535D02*
X-5805Y2635D01*
X-6005D01*
X-6105Y2535D01*
Y2435D01*
X-6005Y2335D01*
X-5905D01*
X-6005D01*
X-6105Y2235D01*
Y2135D01*
X-6005Y2035D01*
X-5805D01*
X-5705Y2135D01*
X-3500Y2000D02*
Y2600D01*
X-3800D01*
X-3900Y2500D01*
Y2300D01*
X-3800Y2200D01*
X-3500D01*
X-3700D02*
X-3900Y2000D01*
X-4500D02*
X-4100D01*
X-4500Y2400D01*
Y2500D01*
X-4400Y2600D01*
X-4200D01*
X-4100Y2500D01*
X-2105Y2035D02*
Y2635D01*
X-2405D01*
X-2505Y2535D01*
Y2335D01*
X-2405Y2235D01*
X-2105D01*
X-2305D02*
X-2505Y2035D01*
X-2705D02*
X-2905D01*
X-2805D01*
Y2635D01*
X-2705Y2535D01*
G54D43*
X1300Y-1750D02*
Y-1300D01*
X700Y-1750D02*
X1300D01*
X700Y-900D02*
Y-450D01*
X1300D01*
Y-900D02*
Y-450D01*
X700Y-1750D02*
Y-1300D01*
M02*
