G04 Layer_Color=65535*
%FSLAX24Y24*%
%MOIN*%
G70*
G01*
G75*
%ADD25C,0.0236*%
%ADD26C,0.0098*%
%ADD27C,0.0079*%
%ADD28C,0.0039*%
%ADD29C,0.0100*%
%ADD30C,0.0250*%
G54D25*
X4008Y-11150D02*
G03*
X4008Y-11150I-118J0D01*
G01*
G54D26*
X3537Y-12000D02*
G03*
X3537Y-12000I-49J0D01*
G01*
G54D27*
X3496Y-10750D02*
G03*
X3496Y-10250I0J250D01*
G01*
X5504Y-11543D02*
Y-9457D01*
X3496Y-10250D02*
Y-9457D01*
Y-11543D02*
Y-10750D01*
Y-9457D02*
X5504D01*
X3496Y-11543D02*
X5504D01*
G54D28*
X-799Y-4168D02*
X-406D01*
X-799Y-6039D02*
Y-4168D01*
Y-6039D02*
X-406D01*
Y-6295D02*
X1996D01*
Y-3933D01*
X-406D02*
X1996D01*
X-406Y-6295D02*
Y-3933D01*
X1996Y-6039D02*
X2783D01*
X1996Y-5783D02*
X2783D01*
Y-6039D02*
Y-5783D01*
X1996Y-4425D02*
X2783D01*
X1996Y-4169D02*
X2783D01*
Y-4425D02*
Y-4169D01*
G54D29*
X500Y-9000D02*
X2500D01*
Y-13000D02*
Y-9000D01*
X500Y-13000D02*
X2500D01*
X500D02*
Y-9000D01*
X-500Y1000D02*
X1500D01*
X-500Y0D02*
Y1000D01*
Y0D02*
X1500D01*
Y1000D01*
X-8500Y-5500D02*
X-6500D01*
Y-9500D02*
Y-5500D01*
X-8500Y-9500D02*
X-6500D01*
X-8500D02*
Y-5500D01*
Y-1000D02*
X-6500D01*
Y-5000D02*
Y-1000D01*
X-8500Y-5000D02*
X-6500D01*
X-8500D02*
Y-1000D01*
X0Y-13000D02*
Y-9000D01*
X-6000Y-13000D02*
X0D01*
X-6000D02*
Y-9000D01*
X0D01*
X-2000Y0D02*
Y1000D01*
X-6000D02*
X-2000D01*
X-6000Y0D02*
Y1000D01*
Y0D02*
X-2000D01*
X-5500Y12500D02*
Y13500D01*
X-2500D01*
Y12500D02*
Y13500D01*
X-5500Y12500D02*
X-2500D01*
X2500D02*
Y13500D01*
X5500D01*
Y12500D02*
Y13500D01*
X2500Y12500D02*
X5500D01*
X7500Y5500D02*
Y6500D01*
X8000Y7000D01*
X8500D01*
X7500Y5500D02*
X8000Y5000D01*
X8500D01*
X-8500Y10000D02*
X8500D01*
X-8500Y2000D02*
Y10000D01*
Y2000D02*
X8500D01*
Y10000D01*
X-1500Y12500D02*
Y13500D01*
X1500D01*
Y12500D02*
Y13500D01*
X-1500Y12500D02*
X1500D01*
X8500Y-6500D02*
Y-500D01*
X4000D02*
X8500D01*
X2000Y-6500D02*
X8500D01*
X-1000Y-500D02*
X4000D01*
X-2500Y-4500D02*
Y-500D01*
Y-6500D02*
Y-4500D01*
X1000Y-6500D02*
X2000D01*
X-2500D02*
X1000D01*
X-2500Y-500D02*
X-1000D01*
X4100Y-8500D02*
X4300D01*
X4400Y-8400D01*
Y-8200D01*
X4300Y-8100D01*
X4100D01*
X4000Y-8200D01*
Y-8400D01*
X4100Y-8500D01*
X4600Y-8700D02*
Y-8100D01*
X4900D01*
X5000Y-8200D01*
Y-8400D01*
X4900Y-8500D01*
X4600D01*
X5300Y-8000D02*
Y-8100D01*
X5200D01*
X5400D01*
X5300D01*
Y-8400D01*
X5400Y-8500D01*
X5799D02*
X5999D01*
X6099Y-8400D01*
Y-8200D01*
X5999Y-8100D01*
X5799D01*
X5699Y-8200D01*
Y-8400D01*
X5799Y-8500D01*
X-1000Y-2900D02*
Y-3400D01*
X-900Y-3500D01*
X-700D01*
X-600Y-3400D01*
Y-2900D01*
X-400Y-3000D02*
X-300Y-2900D01*
X-100D01*
X-0Y-3000D01*
Y-3100D01*
X-200Y-3300D01*
Y-3400D02*
Y-3500D01*
X0Y-8500D02*
X200D01*
X100D01*
Y-8100D01*
X0D01*
X500Y-8500D02*
Y-8100D01*
X800D01*
X900Y-8200D01*
Y-8500D01*
X1200Y-8000D02*
Y-8100D01*
X1100D01*
X1300D01*
X1200D01*
Y-8400D01*
X1300Y-8500D01*
X1899D02*
X1699D01*
X1599Y-8400D01*
Y-8200D01*
X1699Y-8100D01*
X1899D01*
X1999Y-8200D01*
Y-8300D01*
X1599D01*
X2199Y-8100D02*
Y-8500D01*
Y-8300D01*
X2299Y-8200D01*
X2399Y-8100D01*
X2499D01*
X2799D02*
Y-8500D01*
Y-8300D01*
X2899Y-8200D01*
X2999Y-8100D01*
X3099D01*
X-6000Y-1000D02*
X-5400D01*
X-5600Y-1200D01*
X-5400Y-1400D01*
X-6000D01*
Y-2000D02*
Y-1600D01*
X-5600Y-2000D01*
X-5500D01*
X-5400Y-1900D01*
Y-1700D01*
X-5500Y-1600D01*
X-6000Y-5500D02*
X-5400D01*
X-5600Y-5700D01*
X-5400Y-5900D01*
X-6000D01*
Y-6100D02*
Y-6300D01*
Y-6200D01*
X-5400D01*
X-5500Y-6100D01*
X-5500Y-7900D02*
Y-8500D01*
X-5200D01*
X-5100Y-8400D01*
Y-8300D01*
Y-8200D01*
X-5200Y-8100D01*
X-5500D01*
X-4800D02*
X-4600D01*
X-4500Y-8200D01*
Y-8500D01*
X-4800D01*
X-4900Y-8400D01*
X-4800Y-8300D01*
X-4500D01*
X-4200Y-8000D02*
Y-8100D01*
X-4300D01*
X-4100D01*
X-4200D01*
Y-8400D01*
X-4100Y-8500D01*
X-3701Y-8000D02*
Y-8100D01*
X-3801D01*
X-3601D01*
X-3701D01*
Y-8400D01*
X-3601Y-8500D01*
X-3001D02*
X-3201D01*
X-3301Y-8400D01*
Y-8200D01*
X-3201Y-8100D01*
X-3001D01*
X-2901Y-8200D01*
Y-8300D01*
X-3301D01*
X-2701Y-8100D02*
Y-8500D01*
Y-8300D01*
X-2601Y-8200D01*
X-2501Y-8100D01*
X-2401D01*
X-2101Y-8500D02*
X-1901D01*
X-2001D01*
Y-8100D01*
X-2101D01*
X-1301Y-8500D02*
X-1501D01*
X-1601Y-8400D01*
Y-8200D01*
X-1501Y-8100D01*
X-1301D01*
X-1201Y-8200D01*
Y-8300D01*
X-1601D01*
X-5100Y12000D02*
X-5200Y12100D01*
X-5400D01*
X-5500Y12000D01*
Y11900D01*
X-5400Y11800D01*
X-5200D01*
X-5100Y11700D01*
Y11600D01*
X-5200Y11500D01*
X-5400D01*
X-5500Y11600D01*
X-4600Y11500D02*
X-4800D01*
X-4900Y11600D01*
Y11800D01*
X-4800Y11900D01*
X-4600D01*
X-4500Y11800D01*
Y11700D01*
X-4900D01*
X-4300Y11900D02*
Y11500D01*
Y11700D01*
X-4200Y11800D01*
X-4100Y11900D01*
X-4000D01*
X-3701D02*
X-3501Y11500D01*
X-3301Y11900D01*
X-3001Y11500D02*
X-2801D01*
X-2701Y11600D01*
Y11800D01*
X-2801Y11900D01*
X-3001D01*
X-3101Y11800D01*
Y11600D01*
X-3001Y11500D01*
X-8000Y0D02*
Y600D01*
X-7700D01*
X-7600Y500D01*
Y300D01*
X-7700Y200D01*
X-8000D01*
X-7800D02*
X-7600Y0D01*
X-7000Y500D02*
X-7100Y600D01*
X-7300D01*
X-7400Y500D01*
Y100D01*
X-7300Y0D01*
X-7100D01*
X-7000Y100D01*
Y300D01*
X-7200D01*
X-6800Y600D02*
Y0D01*
X-6500D01*
X-6401Y100D01*
Y200D01*
X-6500Y300D01*
X-6800D01*
X-6500D01*
X-6401Y400D01*
Y500D01*
X-6500Y600D01*
X-6800D01*
X-2845Y-6455D02*
X-3445D01*
X-2845Y-6055D01*
X-3445D01*
X-2845Y-5855D02*
X-3445D01*
Y-5555D01*
X-3345Y-5455D01*
X-3145D01*
X-3045Y-5555D01*
Y-5855D01*
Y-5655D02*
X-2845Y-5455D01*
X-3445Y-4856D02*
Y-5255D01*
X-3145D01*
Y-5055D01*
Y-5255D01*
X-2845D01*
Y-4256D02*
Y-4656D01*
X-3245Y-4256D01*
X-3345D01*
X-3445Y-4356D01*
Y-4556D01*
X-3345Y-4656D01*
X-2845Y-3756D02*
X-3445D01*
X-3145Y-4056D01*
Y-3656D01*
X2500Y11500D02*
Y12100D01*
X2700Y11900D01*
X2900Y12100D01*
Y11500D01*
X3100D02*
X3300D01*
X3200D01*
Y11900D01*
X3100D01*
X4000Y12100D02*
Y11500D01*
X3700D01*
X3600Y11600D01*
Y11800D01*
X3700Y11900D01*
X4000D01*
X2400Y400D02*
X2100D01*
X2000Y300D01*
Y100D01*
X2100Y0D01*
X2400D01*
X2600Y600D02*
Y0D01*
Y300D01*
X2700Y400D01*
X2900D01*
X3000Y300D01*
Y0D01*
X3300Y400D02*
X3500D01*
X3599Y300D01*
Y0D01*
X3300D01*
X3200Y100D01*
X3300Y200D01*
X3599D01*
X3799Y0D02*
Y400D01*
X4099D01*
X4199Y300D01*
Y0D01*
X4399D02*
Y400D01*
X4699D01*
X4799Y300D01*
Y0D01*
X5299D02*
X5099D01*
X4999Y100D01*
Y300D01*
X5099Y400D01*
X5299D01*
X5399Y300D01*
Y200D01*
X4999D01*
X5599Y0D02*
X5799D01*
X5699D01*
Y600D01*
X5599D01*
X-1500Y11500D02*
Y11900D01*
X-1300Y12100D01*
X-1100Y11900D01*
Y11500D01*
Y11800D01*
X-1500D01*
X-900Y11900D02*
Y11500D01*
Y11700D01*
X-800Y11800D01*
X-700Y11900D01*
X-600D01*
X-300D02*
Y11500D01*
Y11700D01*
X-200Y11800D01*
X-100Y11900D01*
X-0D01*
X-3500Y10500D02*
Y10900D01*
X-3300Y11100D01*
X-3100Y10900D01*
Y10500D01*
Y10800D01*
X-3500D01*
X-2900Y10900D02*
Y10500D01*
Y10700D01*
X-2800Y10800D01*
X-2700Y10900D01*
X-2600D01*
X-1901Y11100D02*
Y10500D01*
X-2200D01*
X-2300Y10600D01*
Y10800D01*
X-2200Y10900D01*
X-1901D01*
X-1701D02*
Y10600D01*
X-1601Y10500D01*
X-1301D01*
Y10900D01*
X-1101Y10500D02*
X-901D01*
X-1001D01*
Y10900D01*
X-1101D01*
X-601Y10500D02*
Y10900D01*
X-301D01*
X-201Y10800D01*
Y10500D01*
X99D02*
X299D01*
X399Y10600D01*
Y10800D01*
X299Y10900D01*
X99D01*
X-1Y10800D01*
Y10600D01*
X99Y10500D01*
X1198D02*
Y11100D01*
X1598Y10500D01*
Y11100D01*
X1898Y10900D02*
X2098D01*
X2198Y10800D01*
Y10500D01*
X1898D01*
X1798Y10600D01*
X1898Y10700D01*
X2198D01*
X2398Y10500D02*
Y10900D01*
X2698D01*
X2798Y10800D01*
Y10500D01*
X3098D02*
X3298D01*
X3398Y10600D01*
Y10800D01*
X3298Y10900D01*
X3098D01*
X2998Y10800D01*
Y10600D01*
X3098Y10500D01*
G54D30*
X-50650Y66750D02*
Y69249D01*
X-49817Y68416D01*
X-48984Y69249D01*
Y66750D01*
X-47734Y68416D02*
X-46901D01*
X-46485Y68000D01*
Y66750D01*
X-47734D01*
X-48151Y67167D01*
X-47734Y67583D01*
X-46485D01*
X-45652Y66750D02*
X-44819D01*
X-45235D01*
Y68416D01*
X-45652D01*
X-43569Y66750D02*
X-42319D01*
X-41903Y67167D01*
X-42319Y67583D01*
X-43152D01*
X-43569Y68000D01*
X-43152Y68416D01*
X-41903D01*
X-38571D02*
X-37738Y66750D01*
X-36904Y68416D01*
X-35655Y66750D02*
X-34822D01*
X-34405Y67167D01*
Y68000D01*
X-34822Y68416D01*
X-35655D01*
X-36071Y68000D01*
Y67167D01*
X-35655Y66750D01*
X-33572Y68416D02*
Y67167D01*
X-33156Y66750D01*
X-31906D01*
Y68416D01*
X-31073Y66750D02*
X-29823D01*
X-29407Y67167D01*
X-29823Y67583D01*
X-30656D01*
X-31073Y68000D01*
X-30656Y68416D01*
X-29407D01*
X-26075Y66750D02*
Y68416D01*
X-24825D01*
X-24408Y68000D01*
Y66750D01*
X-23159Y69666D02*
Y68833D01*
X-23575Y68416D01*
X-20660Y66750D02*
X-21493D01*
X-21909Y67167D01*
Y68000D01*
X-21493Y68416D01*
X-20660D01*
X-20243Y68000D01*
Y67583D01*
X-21909D01*
X-18994Y68833D02*
Y68416D01*
X-19410D01*
X-18577D01*
X-18994D01*
Y67167D01*
X-18577Y66750D01*
X-16078D02*
X-16911D01*
X-17327Y67167D01*
Y68000D01*
X-16911Y68416D01*
X-16078D01*
X-15661Y68000D01*
Y67583D01*
X-17327D01*
X-14828Y66750D02*
X-13579D01*
X-13162Y67167D01*
X-13579Y67583D01*
X-14412D01*
X-14828Y68000D01*
X-14412Y68416D01*
X-13162D01*
X-9830Y65917D02*
Y68416D01*
X-8580D01*
X-8164Y68000D01*
Y67167D01*
X-8580Y66750D01*
X-9830D01*
X-6914Y68416D02*
X-6081D01*
X-5665Y68000D01*
Y66750D01*
X-6914D01*
X-7331Y67167D01*
X-6914Y67583D01*
X-5665D01*
X-4831Y66750D02*
X-3582D01*
X-3165Y67167D01*
X-3582Y67583D01*
X-4415D01*
X-4831Y68000D01*
X-4415Y68416D01*
X-3165D01*
X583Y66750D02*
X1417D01*
X1833Y67167D01*
Y68000D01*
X1417Y68416D01*
X583D01*
X167Y68000D01*
Y67167D01*
X583Y66750D01*
X2666Y69249D02*
Y66750D01*
X3916D01*
X4332Y67167D01*
Y67583D01*
Y68000D01*
X3916Y68416D01*
X2666D01*
X5165Y66750D02*
X5998D01*
X5582D01*
Y69249D01*
X5165D01*
X7248Y66750D02*
X8081D01*
X7664D01*
Y68416D01*
X7248D01*
X10164Y65917D02*
X10580D01*
X10997Y66333D01*
Y68416D01*
X9747D01*
X9331Y68000D01*
Y67167D01*
X9747Y66750D01*
X10997D01*
X13079D02*
X12246D01*
X11830Y67167D01*
Y68000D01*
X12246Y68416D01*
X13079D01*
X13496Y68000D01*
Y67583D01*
X11830D01*
X14329Y66750D02*
X15579D01*
X15995Y67167D01*
X15579Y67583D01*
X14746D01*
X14329Y68000D01*
X14746Y68416D01*
X15995D01*
X20993Y69249D02*
Y66750D01*
X19744D01*
X19327Y67167D01*
Y68000D01*
X19744Y68416D01*
X20993D01*
X23076Y66750D02*
X22243D01*
X21827Y67167D01*
Y68000D01*
X22243Y68416D01*
X23076D01*
X23493Y68000D01*
Y67583D01*
X21827D01*
X27241Y68833D02*
Y68416D01*
X26825D01*
X27658D01*
X27241D01*
Y67167D01*
X27658Y66750D01*
X29324D02*
X30157D01*
X30574Y67167D01*
Y68000D01*
X30157Y68416D01*
X29324D01*
X28908Y68000D01*
Y67167D01*
X29324Y66750D01*
X31407Y68416D02*
Y67167D01*
X31823Y66750D01*
X33073D01*
Y68416D01*
X34323Y68833D02*
Y68416D01*
X33906D01*
X34739D01*
X34323D01*
Y67167D01*
X34739Y66750D01*
X38488Y68416D02*
Y67167D01*
X38904Y66750D01*
X40154D01*
Y68416D01*
X41404Y68833D02*
Y68416D01*
X40987D01*
X41820D01*
X41404D01*
Y67167D01*
X41820Y66750D01*
X43070D02*
X43903D01*
X43486D01*
Y68416D01*
X43070D01*
X45152Y66750D02*
X45985D01*
X45569D01*
Y69249D01*
X45152D01*
X47235Y66750D02*
X48068D01*
X47652D01*
Y68416D01*
X47235D01*
X49318Y66750D02*
X50567D01*
X50984Y67167D01*
X50567Y67583D01*
X49734D01*
X49318Y68000D01*
X49734Y68416D01*
X50984D01*
X53066Y66750D02*
X52233D01*
X51817Y67167D01*
Y68000D01*
X52233Y68416D01*
X53066D01*
X53483Y68000D01*
Y67583D01*
X51817D01*
X54316Y68416D02*
Y66750D01*
Y67583D01*
X54733Y68000D01*
X55149Y68416D01*
X55566D01*
X56815Y67583D02*
Y69666D01*
Y67167D02*
Y66750D01*
X57648Y67583D02*
Y69666D01*
Y67167D02*
Y66750D01*
X-57050Y73299D02*
Y70800D01*
X-55384D01*
X-53301D02*
X-54134D01*
X-54551Y71217D01*
Y72050D01*
X-54134Y72466D01*
X-53301D01*
X-52885Y72050D01*
Y71633D01*
X-54551D01*
X-52052Y70800D02*
X-50802D01*
X-50385Y71217D01*
X-50802Y71633D01*
X-51635D01*
X-52052Y72050D01*
X-51635Y72466D01*
X-50385D01*
X-47053Y73299D02*
Y70800D01*
X-45804D01*
X-45387Y71217D01*
Y71633D01*
Y72050D01*
X-45804Y72466D01*
X-47053D01*
X-44138D02*
X-43304D01*
X-42888Y72050D01*
Y70800D01*
X-44138D01*
X-44554Y71217D01*
X-44138Y71633D01*
X-42888D01*
X-42055Y70800D02*
Y72466D01*
X-40805D01*
X-40389Y72050D01*
Y70800D01*
X-37890Y73299D02*
Y70800D01*
X-39139D01*
X-39556Y71217D01*
Y72050D01*
X-39139Y72466D01*
X-37890D01*
X-35807Y70800D02*
X-36640D01*
X-37056Y71217D01*
Y72050D01*
X-36640Y72466D01*
X-35807D01*
X-35390Y72050D01*
Y71633D01*
X-37056D01*
X-34557Y70800D02*
X-33308D01*
X-32891Y71217D01*
X-33308Y71633D01*
X-34141D01*
X-34557Y72050D01*
X-34141Y72466D01*
X-32891D01*
X-28309Y70800D02*
X-29142D01*
X-29559Y71217D01*
Y72050D01*
X-29142Y72466D01*
X-28309D01*
X-27893Y72050D01*
Y71633D01*
X-29559D01*
X-27060Y70800D02*
Y72466D01*
X-25810D01*
X-25394Y72050D01*
Y70800D01*
X-22061Y72466D02*
X-21228Y70800D01*
X-20395Y72466D01*
X-19562Y70800D02*
X-18729D01*
X-19146D01*
Y72466D01*
X-19562D01*
X-17063Y70800D02*
X-16230D01*
X-15813Y71217D01*
Y72050D01*
X-16230Y72466D01*
X-17063D01*
X-17479Y72050D01*
Y71217D01*
X-17063Y70800D01*
X-14980D02*
X-14147D01*
X-14564D01*
Y73299D01*
X-14980D01*
X-11648Y70800D02*
X-12481D01*
X-12898Y71217D01*
Y72050D01*
X-12481Y72466D01*
X-11648D01*
X-11231Y72050D01*
Y71633D01*
X-12898D01*
X-9982Y72883D02*
Y72466D01*
X-10398D01*
X-9565D01*
X-9982D01*
Y71217D01*
X-9565Y70800D01*
X-4150Y73299D02*
Y70800D01*
X-5400D01*
X-5817Y71217D01*
Y72050D01*
X-5400Y72466D01*
X-4150D01*
X-2068Y70800D02*
X-2901D01*
X-3317Y71217D01*
Y72050D01*
X-2901Y72466D01*
X-2068D01*
X-1651Y72050D01*
Y71633D01*
X-3317D01*
X-818Y70800D02*
X15D01*
X-402D01*
Y73299D01*
X-818D01*
X1264Y70800D02*
X2098D01*
X1681D01*
Y72466D01*
X1264D01*
X3347Y70800D02*
Y72466D01*
X3764D01*
X4180Y72050D01*
Y70800D01*
Y72050D01*
X4597Y72466D01*
X5013Y72050D01*
Y70800D01*
X5846D02*
X6679D01*
X6263D01*
Y72466D01*
X5846D01*
X8346Y72883D02*
Y72466D01*
X7929D01*
X8762D01*
X8346D01*
Y71217D01*
X8762Y70800D01*
X11261D02*
X10428D01*
X10012Y71217D01*
Y72050D01*
X10428Y72466D01*
X11261D01*
X11678Y72050D01*
Y71633D01*
X10012D01*
X12511Y70800D02*
Y72466D01*
X13760D01*
X14177Y72050D01*
Y70800D01*
X15427Y72883D02*
Y72466D01*
X15010D01*
X15843D01*
X15427D01*
Y71217D01*
X15843Y70800D01*
X19592D02*
X20425D01*
X20008D01*
Y73299D01*
X19592D01*
X22091Y72466D02*
X22924D01*
X23341Y72050D01*
Y70800D01*
X22091D01*
X21675Y71217D01*
X22091Y71633D01*
X23341D01*
X26673Y70800D02*
X27923D01*
X28339Y71217D01*
X27923Y71633D01*
X27089D01*
X26673Y72050D01*
X27089Y72466D01*
X28339D01*
X29172D02*
Y71217D01*
X29589Y70800D01*
X30838D01*
Y72466D01*
X31671D02*
Y70800D01*
Y71633D01*
X32088Y72050D01*
X32504Y72466D01*
X32921D01*
X34587Y70800D02*
Y72883D01*
Y72050D01*
X34171D01*
X35004D01*
X34587D01*
Y72883D01*
X35004Y73299D01*
X36670Y72466D02*
X37503D01*
X37919Y72050D01*
Y70800D01*
X36670D01*
X36253Y71217D01*
X36670Y71633D01*
X37919D01*
X40418Y72466D02*
X39169D01*
X38752Y72050D01*
Y71217D01*
X39169Y70800D01*
X40418D01*
X42501D02*
X41668D01*
X41252Y71217D01*
Y72050D01*
X41668Y72466D01*
X42501D01*
X42918Y72050D01*
Y71633D01*
X41252D01*
X46250Y72466D02*
Y71217D01*
X46666Y70800D01*
X47916D01*
Y72466D01*
X49166Y72883D02*
Y72466D01*
X48749D01*
X49582D01*
X49166D01*
Y71217D01*
X49582Y70800D01*
X50832D02*
X51665D01*
X51248D01*
Y72466D01*
X50832D01*
X52914Y70800D02*
X53748D01*
X53331D01*
Y73299D01*
X52914D01*
X54997Y70800D02*
X55830D01*
X55414D01*
Y72466D01*
X54997D01*
X57080Y70800D02*
X58329D01*
X58746Y71217D01*
X58329Y71633D01*
X57496D01*
X57080Y72050D01*
X57496Y72466D01*
X58746D01*
X59995D02*
X60829D01*
X61245Y72050D01*
Y70800D01*
X59995D01*
X59579Y71217D01*
X59995Y71633D01*
X61245D01*
X62078Y73299D02*
Y70800D01*
X63328D01*
X63744Y71217D01*
Y71633D01*
Y72050D01*
X63328Y72466D01*
X62078D01*
X64577Y70800D02*
X65410D01*
X64994D01*
Y73299D01*
X64577D01*
X67910Y70800D02*
X67077D01*
X66660Y71217D01*
Y72050D01*
X67077Y72466D01*
X67910D01*
X68326Y72050D01*
Y71633D01*
X66660D01*
X69159Y70800D02*
Y71217D01*
X69576D01*
Y70800D01*
X69159D01*
X71242D02*
Y71217D01*
X71658D01*
Y70800D01*
X71242D01*
X73325D02*
Y71217D01*
X73741D01*
Y70800D01*
X73325D01*
X75407D02*
Y71217D01*
X75824D01*
Y70800D01*
X75407D01*
M02*
