G04 Layer_Color=16711935*
%FSLAX24Y24*%
%MOIN*%
G70*
G01*
G75*
%ADD33C,0.0671*%
%ADD34R,0.0671X0.0671*%
%ADD35O,0.2049X0.1655*%
%ADD36C,0.0946*%
%ADD37O,0.2442X0.3230*%
%ADD38O,0.0552X0.0946*%
%ADD39C,0.2442*%
%ADD40C,0.0631*%
%ADD41R,0.0580X0.0480*%
%ADD42R,0.0356X0.0434*%
G54D33*
X5000Y-9000D02*
D03*
X4000D02*
D03*
X5000Y-12000D02*
D03*
X3000Y1000D02*
D03*
X4000Y1646D02*
D03*
X-140Y2176D02*
D03*
G54D34*
X4000Y-12000D02*
D03*
G54D35*
X1500D02*
D03*
Y-10000D02*
D03*
X-7500Y-8500D02*
D03*
Y-6500D02*
D03*
Y-4000D02*
D03*
Y-2000D02*
D03*
G54D36*
X1000Y500D02*
D03*
X-0D02*
D03*
X-2500D02*
D03*
X-3500D02*
D03*
X-4500D02*
D03*
X-5500D02*
D03*
X-3000Y13000D02*
D03*
X-4000D02*
D03*
X-5000D02*
D03*
X5000D02*
D03*
X4000D02*
D03*
X3000D02*
D03*
X-4000Y3000D02*
D03*
X-3000D02*
D03*
X-2000D02*
D03*
X-1000D02*
D03*
X-0D02*
D03*
X1000D02*
D03*
X2000D02*
D03*
X3000D02*
D03*
X4000D02*
D03*
X5000D02*
D03*
X6000D02*
D03*
X7000D02*
D03*
X-7000Y9000D02*
D03*
X-6000D02*
D03*
X-5000D02*
D03*
X-4000D02*
D03*
X-0D02*
D03*
X4000D02*
D03*
X7000D02*
D03*
X1000Y13000D02*
D03*
X-0D02*
D03*
X-1000D02*
D03*
X7000Y-3000D02*
D03*
Y-4000D02*
D03*
Y-5000D02*
D03*
Y-6000D02*
D03*
X8000Y-3000D02*
D03*
Y-4000D02*
D03*
Y-5000D02*
D03*
Y-6000D02*
D03*
G54D37*
X-1583Y-11000D02*
D03*
X-4417D02*
D03*
G54D38*
X-7000Y3000D02*
D03*
X-6000D02*
D03*
X-5000D02*
D03*
X-3000Y9000D02*
D03*
X-2000D02*
D03*
X-1000D02*
D03*
X1000D02*
D03*
X2000D02*
D03*
X3000D02*
D03*
X5000D02*
D03*
X6000D02*
D03*
G54D39*
X-7500Y11500D02*
D03*
X7500D02*
D03*
Y-11000D02*
D03*
X-7500D02*
D03*
G54D40*
X906Y-5094D02*
D03*
X3000Y-5000D02*
D03*
G54D41*
X1000Y-1500D02*
D03*
Y-700D02*
D03*
G54D42*
X-5205Y1500D02*
D03*
X-5795D02*
D03*
X-4295D02*
D03*
X-3705D02*
D03*
X-2205D02*
D03*
X-2795D02*
D03*
M02*
