G04 Layer_Color=2752767*
%FSLAX24Y24*%
%MOIN*%
G70*
G01*
G75*
%ADD49C,0.0050*%
%ADD50C,0.0067*%
G54D49*
X4800Y-9200D02*
Y-8800D01*
X5200D01*
Y-9200D01*
X4800D01*
X3800D02*
Y-8800D01*
X4200D01*
Y-9200D01*
X3800D01*
X4800Y-12200D02*
Y-11800D01*
X5200D01*
Y-12200D01*
X4800D01*
X3800D02*
Y-11800D01*
X4200D01*
Y-12200D01*
X3800D01*
X1000Y300D02*
X800Y700D01*
X1200D01*
X1000Y300D01*
X-0D02*
X-200Y700D01*
X200D01*
X-0Y300D01*
X-1583Y-11200D02*
X-1483Y-11100D01*
X-1383D01*
X-1483Y-11000D01*
X-1383Y-10900D01*
X-1483D01*
X-1583Y-10800D01*
X-1683Y-10900D01*
X-1783D01*
X-1683Y-11000D01*
X-1783Y-11100D01*
X-1683D01*
X-1583Y-11200D01*
X-4417D02*
X-4317Y-11100D01*
X-4217D01*
X-4317Y-11000D01*
X-4217Y-10900D01*
X-4317D01*
X-4417Y-10800D01*
X-4517Y-10900D01*
X-4617D01*
X-4517Y-11000D01*
X-4617Y-11100D01*
X-4517D01*
X-4417Y-11200D01*
X-2500Y300D02*
X-2700Y700D01*
X-2300D01*
X-2500Y300D01*
X-3500D02*
X-3700Y700D01*
X-3300D01*
X-3500Y300D01*
X-4500D02*
X-4700Y700D01*
X-4300D01*
X-4500Y300D01*
X-5500D02*
X-5700Y700D01*
X-5300D01*
X-5500Y300D01*
X-3000Y12800D02*
X-3200Y13200D01*
X-2800D01*
X-3000Y12800D01*
X-4000D02*
X-4200Y13200D01*
X-3800D01*
X-4000Y12800D01*
X-5000D02*
X-5200Y13200D01*
X-4800D01*
X-5000Y12800D01*
X5000D02*
X4800Y13200D01*
X5200D01*
X5000Y12800D01*
X4000D02*
X3800Y13200D01*
X4200D01*
X4000Y12800D01*
X3000D02*
X2800Y13200D01*
X3200D01*
X3000Y12800D01*
X-7000Y2800D02*
X-7200Y3200D01*
X-6800D01*
X-7000Y2800D01*
X-6000D02*
X-6200Y3200D01*
X-5800D01*
X-6000Y2800D01*
X-5000D02*
X-5200Y3200D01*
X-4800D01*
X-5000Y2800D01*
X-4000D02*
X-4200Y3200D01*
X-3800D01*
X-4000Y2800D01*
X-3000D02*
X-3200Y3200D01*
X-2800D01*
X-3000Y2800D01*
X-2000D02*
X-2200Y3200D01*
X-1800D01*
X-2000Y2800D01*
X-1000D02*
X-1200Y3200D01*
X-800D01*
X-1000Y2800D01*
X-0D02*
X-200Y3200D01*
X200D01*
X-0Y2800D01*
X1000D02*
X800Y3200D01*
X1200D01*
X1000Y2800D01*
X2000D02*
X1800Y3200D01*
X2200D01*
X2000Y2800D01*
X3000D02*
X2800Y3200D01*
X3200D01*
X3000Y2800D01*
X4000D02*
X3800Y3200D01*
X4200D01*
X4000Y2800D01*
X5000D02*
X4800Y3200D01*
X5200D01*
X5000Y2800D01*
X6000D02*
X5800Y3200D01*
X6200D01*
X6000Y2800D01*
X7000D02*
X6800Y3200D01*
X7200D01*
X7000Y2800D01*
X-7000Y8800D02*
X-7200Y9200D01*
X-6800D01*
X-7000Y8800D01*
X-6000D02*
X-6200Y9200D01*
X-5800D01*
X-6000Y8800D01*
X-5000D02*
X-5200Y9200D01*
X-4800D01*
X-5000Y8800D01*
X-4000D02*
X-4200Y9200D01*
X-3800D01*
X-4000Y8800D01*
X-3000D02*
X-3200Y9200D01*
X-2800D01*
X-3000Y8800D01*
X-2000D02*
X-2200Y9200D01*
X-1800D01*
X-2000Y8800D01*
X-1000D02*
X-1200Y9200D01*
X-800D01*
X-1000Y8800D01*
X-0D02*
X-200Y9200D01*
X200D01*
X-0Y8800D01*
X1000D02*
X800Y9200D01*
X1200D01*
X1000Y8800D01*
X2000D02*
X1800Y9200D01*
X2200D01*
X2000Y8800D01*
X3000D02*
X2800Y9200D01*
X3200D01*
X3000Y8800D01*
X4000D02*
X3800Y9200D01*
X4200D01*
X4000Y8800D01*
X5000D02*
X4800Y9200D01*
X5200D01*
X5000Y8800D01*
X6000D02*
X5800Y9200D01*
X6200D01*
X6000Y8800D01*
X7000D02*
X6800Y9200D01*
X7200D01*
X7000Y8800D01*
X1000Y12800D02*
X800Y13200D01*
X1200D01*
X1000Y12800D01*
X-0D02*
X-200Y13200D01*
X200D01*
X-0Y12800D01*
X-1000D02*
X-1200Y13200D01*
X-800D01*
X-1000Y12800D01*
X7000Y-3200D02*
X6800Y-2800D01*
X7200D01*
X7000Y-3200D01*
Y-4200D02*
X6800Y-3800D01*
X7200D01*
X7000Y-4200D01*
Y-5200D02*
X6800Y-4800D01*
X7200D01*
X7000Y-5200D01*
Y-6200D02*
X6800Y-5800D01*
X7200D01*
X7000Y-6200D01*
X8000Y-3200D02*
X7800Y-2800D01*
X8200D01*
X8000Y-3200D01*
Y-4200D02*
X7800Y-3800D01*
X8200D01*
X8000Y-4200D01*
Y-5200D02*
X7800Y-4800D01*
X8200D01*
X8000Y-5200D01*
Y-6200D02*
X7800Y-5800D01*
X8200D01*
X8000Y-6200D01*
X-7700Y11300D02*
X-7600Y11500D01*
X-7700Y11700D01*
X-7500Y11600D01*
X-7300Y11700D01*
X-7400Y11500D01*
X-7300Y11300D01*
X-7500Y11400D01*
X-7700Y11300D01*
X7300D02*
X7400Y11500D01*
X7300Y11700D01*
X7500Y11600D01*
X7700Y11700D01*
X7600Y11500D01*
X7700Y11300D01*
X7500Y11400D01*
X7300Y11300D01*
Y-11200D02*
X7400Y-11000D01*
X7300Y-10800D01*
X7500Y-10900D01*
X7700Y-10800D01*
X7600Y-11000D01*
X7700Y-11200D01*
X7500Y-11100D01*
X7300Y-11200D01*
X-7700D02*
X-7600Y-11000D01*
X-7700Y-10800D01*
X-7500Y-10900D01*
X-7300Y-10800D01*
X-7400Y-11000D01*
X-7300Y-11200D01*
X-7500Y-11100D01*
X-7700Y-11200D01*
X806Y-5194D02*
Y-5294D01*
X1006D01*
Y-5194D01*
X1106D01*
Y-4994D01*
X1006D01*
Y-4894D01*
X806D01*
Y-4994D01*
X706D01*
Y-5194D01*
X806D01*
X2900Y-5100D02*
Y-5200D01*
X3100D01*
Y-5100D01*
X3200D01*
Y-4900D01*
X3100D01*
Y-4800D01*
X2900D01*
Y-4900D01*
X2800D01*
Y-5100D01*
X2900D01*
X2900Y900D02*
Y800D01*
X3100D01*
Y900D01*
X3200D01*
Y1100D01*
X3100D01*
Y1200D01*
X2900D01*
Y1100D01*
X2800D01*
Y900D01*
X2900D01*
X3900Y1546D02*
Y1446D01*
X4100D01*
Y1546D01*
X4200D01*
Y1746D01*
X4100D01*
Y1846D01*
X3900D01*
Y1746D01*
X3800D01*
Y1546D01*
X3900D01*
X-240Y2076D02*
Y1976D01*
X-40D01*
Y2076D01*
X60D01*
Y2276D01*
X-40D01*
Y2376D01*
X-240D01*
Y2276D01*
X-340D01*
Y2076D01*
X-240D01*
G54D50*
X1700Y-12000D02*
G03*
X1700Y-12000I-200J0D01*
G01*
Y-10000D02*
G03*
X1700Y-10000I-200J0D01*
G01*
X-7300Y-8500D02*
G03*
X-7300Y-8500I-200J0D01*
G01*
Y-6500D02*
G03*
X-7300Y-6500I-200J0D01*
G01*
Y-4000D02*
G03*
X-7300Y-4000I-200J0D01*
G01*
Y-2000D02*
G03*
X-7300Y-2000I-200J0D01*
G01*
M02*
