G04 Layer_Physical_Order=1*
G04 Layer_Color=255*
%FSLAX24Y24*%
%MOIN*%
G70*
G01*
G75*
%ADD10R,0.1500X0.0600*%
%ADD11R,0.1500X0.2000*%
%ADD12C,0.0315*%
%ADD13C,0.1575*%
%ADD14C,0.0591*%
%ADD15R,0.0591X0.0591*%
%ADD16O,0.1969X0.1575*%
%ADD17C,0.0866*%
%ADD18O,0.2362X0.3150*%
%ADD19O,0.0472X0.0866*%
%ADD20C,0.2362*%
%ADD21C,0.0551*%
G36*
X2540Y1902D02*
X2639Y1731D01*
Y1431D01*
X2639Y1344D01*
X2567Y1250D01*
Y1250D01*
X2517Y1129D01*
X2517Y1129D01*
X2500Y1000D01*
X2500Y1000D01*
X2517Y871D01*
X2517Y871D01*
X2546Y803D01*
X2546Y803D01*
X2567Y750D01*
X2567Y750D01*
X2647Y647D01*
X2647Y647D01*
X2750Y567D01*
X2803Y546D01*
X2803Y546D01*
X2871Y517D01*
X2927Y510D01*
X2927Y510D01*
X3000Y500D01*
X3000Y500D01*
X3056Y508D01*
X3056Y508D01*
X3129Y517D01*
X3129Y517D01*
X3182Y539D01*
X3182D01*
X3250Y567D01*
X3250D01*
X3295Y602D01*
X3295Y602D01*
X3353Y647D01*
X3353Y647D01*
X3388Y692D01*
X3388Y692D01*
X3433Y750D01*
X3433Y750D01*
Y750D01*
X3461Y791D01*
X3461Y791D01*
X3550Y922D01*
X3752Y1074D01*
X4000Y1147D01*
X4056Y1154D01*
X4129Y1164D01*
X4250Y1214D01*
X4353Y1293D01*
X4733Y1259D01*
X5139Y1074D01*
Y-3500D01*
X5152Y-3593D01*
X5188Y-3680D01*
X5245Y-3755D01*
X6319Y-4829D01*
X6366Y-4977D01*
X6364Y-5000D01*
X6376Y-5124D01*
X6412Y-5243D01*
X6471Y-5353D01*
X6497Y-5385D01*
X6550Y-5550D01*
X6471Y-5647D01*
X6412Y-5757D01*
X6376Y-5876D01*
X6364Y-6000D01*
X6376Y-6124D01*
X6412Y-6243D01*
X6471Y-6353D01*
X6550Y-6450D01*
X6647Y-6529D01*
X6757Y-6588D01*
X6876Y-6624D01*
X7000Y-6636D01*
X7124Y-6624D01*
X7243Y-6588D01*
X7353Y-6529D01*
X7599Y-6392D01*
X7731Y-6466D01*
X7861Y-6519D01*
X7880Y-6522D01*
Y-6000D01*
X8120D01*
Y-6522D01*
X8139Y-6519D01*
X8269Y-6466D01*
X8269D01*
X8730Y-6652D01*
X9000Y-6862D01*
Y-9439D01*
X8580Y-9709D01*
X8213Y-9817D01*
X8129Y-9766D01*
X7928Y-9682D01*
X7717Y-9632D01*
X7500Y-9615D01*
X7283Y-9632D01*
X7072Y-9682D01*
X6871Y-9766D01*
X6686Y-9879D01*
X6520Y-10020D01*
X6379Y-10186D01*
X6266Y-10371D01*
X6212Y-10500D01*
X4222D01*
X4141Y-10430D01*
X4071Y-10272D01*
X4079Y-10163D01*
X4560Y-9428D01*
X4673Y-9413D01*
X4880Y-9404D01*
Y-9000D01*
Y-8504D01*
X4832Y-8466D01*
X4463Y-8167D01*
X4361Y-8020D01*
Y-7271D01*
X4361Y-7079D01*
X4361Y-7079D01*
X4361Y-7004D01*
X4361Y-7004D01*
X4361Y-7004D01*
X4361Y-6500D01*
X4348Y-6407D01*
X4312Y-6320D01*
X4265Y-6258D01*
X4265Y-6258D01*
X4255Y-6245D01*
X4196Y-6186D01*
X3950Y-5500D01*
X3950D01*
X3947Y-4714D01*
X3950Y-4689D01*
X3950D01*
X3950Y-4689D01*
Y-3689D01*
X2050D01*
X2050Y-3689D01*
Y-3689D01*
X1308Y-3798D01*
X-319Y-2171D01*
Y-874D01*
X-301Y-804D01*
X-80Y-314D01*
X40Y-267D01*
X730Y-73D01*
X757Y-88D01*
X876Y-124D01*
X1000Y-136D01*
X1124Y-124D01*
X1243Y-88D01*
X1353Y-29D01*
X1450Y50D01*
X1529Y147D01*
X1588Y257D01*
X1624Y376D01*
X1636Y500D01*
X1624Y624D01*
X1588Y743D01*
X1529Y853D01*
X1450Y950D01*
X1361Y1023D01*
Y1792D01*
X1929Y2328D01*
X2540Y1902D01*
D02*
G37*
G36*
X-7646Y9839D02*
X-7529Y9353D01*
X-7588Y9243D01*
X-7624Y9124D01*
X-7636Y9000D01*
X-7624Y8876D01*
X-7588Y8757D01*
X-7529Y8647D01*
X-7450Y8550D01*
X-7361Y8477D01*
Y6000D01*
X-7348Y5907D01*
X-7312Y5820D01*
X-7255Y5745D01*
X-5921Y4411D01*
X-5978Y3856D01*
X-6029Y3633D01*
X-6053Y3630D01*
X-6173Y3621D01*
X-6173D01*
X-6173Y3621D01*
X-6500Y3618D01*
X-6827Y3621D01*
X-6947Y3630D01*
X-7000Y3637D01*
X-7000Y3637D01*
X-7114Y3622D01*
X-7114Y3622D01*
X-7114Y3622D01*
X-7220Y3578D01*
X-7220D01*
X-7220Y3578D01*
X-7286Y3527D01*
X-7311Y3508D01*
X-7311Y3508D01*
X-7381Y3417D01*
X-7381Y3417D01*
X-7381Y3417D01*
X-7425Y3311D01*
X-7425Y3311D01*
X-7440Y3197D01*
X-7440Y3197D01*
X-7440Y2949D01*
X-7440Y2803D01*
X-7440Y2803D01*
X-7437Y2783D01*
X-7425Y2689D01*
X-7425Y2689D01*
X-7381Y2583D01*
Y2583D01*
X-7381Y2583D01*
X-7311Y2492D01*
Y2492D01*
X-7220Y2422D01*
X-7114Y2378D01*
X-7000Y2363D01*
X-7000Y2363D01*
X-6947Y2370D01*
X-6827Y2379D01*
X-6500Y2382D01*
X-6173Y2379D01*
X-6053Y2370D01*
X-6000Y2363D01*
X-6000Y2363D01*
X-5886Y2378D01*
X-5886D01*
X-5851Y2393D01*
X-5812Y2376D01*
X-5755Y2302D01*
X-5525Y2071D01*
X-5450Y2014D01*
X-5363Y1978D01*
X-5270Y1966D01*
X-2680D01*
X-2407Y1445D01*
X-2500Y1136D01*
X-2624Y1124D01*
X-2743Y1088D01*
X-2853Y1029D01*
X-2950Y950D01*
X-3050D01*
X-3147Y1029D01*
X-3257Y1088D01*
X-3376Y1124D01*
X-3500Y1136D01*
X-3624Y1124D01*
X-3743Y1088D01*
X-3853Y1029D01*
X-4099Y892D01*
X-4231Y966D01*
X-4361Y1019D01*
X-4380Y1022D01*
Y500D01*
X-4620D01*
Y1022D01*
X-4639Y1019D01*
X-4769Y966D01*
X-4901Y892D01*
X-5147Y1029D01*
X-5257Y1088D01*
X-5376Y1124D01*
X-5500Y1136D01*
X-5624Y1124D01*
X-5743Y1088D01*
X-5853Y1029D01*
X-5950Y950D01*
X-6029Y853D01*
X-6088Y743D01*
X-6124Y624D01*
X-6136Y500D01*
X-6124Y376D01*
X-6088Y257D01*
X-6279Y-225D01*
X-6425Y-442D01*
X-6481Y-500D01*
X-9000D01*
Y9939D01*
X-8580Y10209D01*
X-8238Y10309D01*
X-7646Y9839D01*
D02*
G37*
G36*
X-5519Y12861D02*
X-5519Y12861D01*
X-5466Y12731D01*
X-5380Y12620D01*
X-5269Y12534D01*
X-5269Y12534D01*
X-5139Y12481D01*
X-5139Y12481D01*
X-5120Y12478D01*
Y13000D01*
X-4880D01*
Y12362D01*
X-4503Y12048D01*
X-4361Y11876D01*
Y10269D01*
X-4469Y10082D01*
X-5000Y9636D01*
X-5124Y9624D01*
X-5243Y9588D01*
X-5353Y9529D01*
X-5599Y9392D01*
X-5731Y9466D01*
X-5861Y9519D01*
X-5880Y9522D01*
Y9000D01*
Y8478D01*
X-5861Y8481D01*
X-5731Y8534D01*
X-5599Y8608D01*
X-5353Y8471D01*
X-5243Y8412D01*
X-5124Y8376D01*
X-5000Y8364D01*
X-4876Y8376D01*
X-4757Y8412D01*
X-4647Y8471D01*
X-4550Y8550D01*
X-4450D01*
X-4353Y8471D01*
X-4243Y8412D01*
X-4124Y8376D01*
X-4000Y8364D01*
X-3876Y8376D01*
X-3757Y8412D01*
X-3757Y8412D01*
X-3624Y8472D01*
X-3311Y8492D01*
X-3220Y8422D01*
X-3114Y8378D01*
X-3000Y8363D01*
X-3000Y8363D01*
X-2947Y8370D01*
X-2827Y8379D01*
X-2500Y8382D01*
X-2173Y8379D01*
X-2053Y8370D01*
X-2000Y8363D01*
X-1947Y8370D01*
X-1827Y8379D01*
X-1500Y8382D01*
X-1173Y8379D01*
X-1053Y8370D01*
X-1000Y8363D01*
X-1000Y8363D01*
X-886Y8378D01*
X-886D01*
X-780Y8422D01*
X-780D01*
X-689Y8492D01*
X-376Y8472D01*
X-243Y8412D01*
X-243Y8412D01*
X-124Y8376D01*
X-0Y8364D01*
X124Y8376D01*
X243Y8412D01*
X243Y8412D01*
X346Y8459D01*
X1038Y8116D01*
X1120Y7585D01*
Y4630D01*
X171Y3681D01*
X23Y3634D01*
X-0Y3636D01*
X-124Y3624D01*
X-243Y3588D01*
X-353Y3529D01*
X-385Y3503D01*
X-550Y3450D01*
X-647Y3529D01*
X-757Y3588D01*
X-876Y3624D01*
X-1000Y3636D01*
X-1124Y3624D01*
X-1243Y3588D01*
X-1353Y3529D01*
X-1450Y3450D01*
X-1550D01*
X-1647Y3529D01*
X-1757Y3588D01*
X-1876Y3624D01*
X-2000Y3636D01*
X-2124Y3624D01*
X-2243Y3588D01*
X-2353Y3529D01*
X-2450Y3450D01*
X-2550D01*
X-2647Y3529D01*
X-2757Y3588D01*
X-2876Y3624D01*
X-3000Y3636D01*
X-3124Y3624D01*
X-3243Y3588D01*
X-3353Y3529D01*
X-3599Y3392D01*
X-3731Y3466D01*
X-3861Y3519D01*
X-3880Y3522D01*
Y3000D01*
X-4120D01*
Y3522D01*
X-4139Y3519D01*
X-4780Y3578D01*
X-4886Y3622D01*
Y3622D01*
X-4910Y3625D01*
X-5000Y3637D01*
Y3637D01*
X-5139Y4413D01*
Y4500D01*
X-5152Y4593D01*
X-5188Y4680D01*
X-5245Y4755D01*
X-6639Y6149D01*
Y7876D01*
X-6497Y8048D01*
X-6120Y8362D01*
Y9000D01*
Y9576D01*
X-6246Y9640D01*
X-6316Y9696D01*
X-6363Y9782D01*
X-6422Y10060D01*
X-6459Y10592D01*
X-6379Y10686D01*
X-6266Y10871D01*
X-6182Y11072D01*
X-6132Y11283D01*
X-6115Y11500D01*
X-6132Y11717D01*
X-6182Y11928D01*
X-6266Y12129D01*
X-6379Y12314D01*
X-6409Y12349D01*
X-6395Y12998D01*
X-6330Y13136D01*
X-6248Y13256D01*
X-6138Y13269D01*
X-5519Y12861D01*
D02*
G37*
%LPC*%
G36*
X5378Y-9120D02*
X5120D01*
Y-9378D01*
X5199Y-9345D01*
X5282Y-9282D01*
X5345Y-9199D01*
X5378Y-9120D01*
D02*
G37*
G36*
X5120Y-8622D02*
Y-8880D01*
X5378D01*
X5345Y-8801D01*
X5282Y-8718D01*
X5199Y-8655D01*
X5120Y-8622D01*
D02*
G37*
%LPD*%
G54D10*
X3000Y-6000D02*
D03*
Y-4189D02*
D03*
G54D11*
X-504Y-5094D02*
D03*
G54D12*
X906D01*
X-680Y-2320D02*
Y2036D01*
Y-2320D02*
X3000Y-6000D01*
Y-4833D02*
Y-4189D01*
X3000Y-6000D02*
X3500D01*
X4000Y-6500D01*
Y-7004D02*
Y-6500D01*
X5000Y3000D02*
X5500Y2500D01*
Y-3500D02*
Y2500D01*
Y-3500D02*
X7000Y-5000D01*
X-5500Y2557D02*
Y4500D01*
X-7000Y6000D02*
X-5500Y4500D01*
X-7000Y6000D02*
Y9000D01*
X-5500Y2557D02*
X-5270Y2326D01*
X2830Y-10830D02*
X4000Y-12000D01*
X1500Y-10000D02*
X2530D01*
X2830Y-10300D01*
Y-10830D02*
Y-10300D01*
X1000Y13000D02*
X1480Y12520D01*
Y4480D02*
Y12520D01*
X-0Y3000D02*
X1480Y4480D01*
X1000Y3000D02*
X2500Y4500D01*
Y10500D01*
X5000Y13000D01*
X3000Y1000D02*
Y3000D01*
X4000Y1646D02*
Y3000D01*
X6000Y-3000D02*
Y3000D01*
Y-3000D02*
X7000Y-4000D01*
Y-2000D02*
Y3000D01*
Y-2000D02*
X8000Y-3000D01*
X-970Y2326D02*
X-680Y2036D01*
X-5270Y2326D02*
X-970D01*
X-140Y640D02*
Y2176D01*
Y640D02*
X-0Y500D01*
X1000D02*
Y2000D01*
X2000Y3000D01*
X-3000Y13000D02*
X-0Y10000D01*
Y9000D02*
Y10000D01*
X8000Y-4000D02*
X8680Y-3320D01*
Y7320D01*
X7000Y9000D02*
X8680Y7320D01*
X4000Y-7004D02*
X4000Y-7004D01*
X4000Y-9000D02*
Y-7004D01*
X-4000Y9000D02*
Y13000D01*
G54D13*
X-1583Y-11000D02*
X-583Y-12000D01*
X1500D01*
X-500Y-8000D02*
X1500Y-10000D01*
X-2500Y-8000D02*
X-500D01*
X-4000Y-6500D02*
X-2500Y-8000D01*
X-7500Y-6500D02*
X-4000D01*
Y-3500D01*
X-5500Y-2000D02*
X-4000Y-3500D01*
X-7500Y-2000D02*
X-5500D01*
G54D14*
X5000Y-9000D02*
D03*
X4000D02*
D03*
X5000Y-12000D02*
D03*
X3000Y1000D02*
D03*
X4000Y1646D02*
D03*
X-140Y2176D02*
D03*
G54D15*
X4000Y-12000D02*
D03*
G54D16*
X1500D02*
D03*
Y-10000D02*
D03*
X-7500Y-8500D02*
D03*
Y-6500D02*
D03*
Y-4000D02*
D03*
Y-2000D02*
D03*
G54D17*
X1000Y500D02*
D03*
X-0D02*
D03*
X-2500D02*
D03*
X-3500D02*
D03*
X-4500D02*
D03*
X-5500D02*
D03*
X-3000Y13000D02*
D03*
X-4000D02*
D03*
X-5000D02*
D03*
X5000D02*
D03*
X4000D02*
D03*
X3000D02*
D03*
X-4000Y3000D02*
D03*
X-3000D02*
D03*
X-2000D02*
D03*
X-1000D02*
D03*
X-0D02*
D03*
X1000D02*
D03*
X2000D02*
D03*
X3000D02*
D03*
X4000D02*
D03*
X5000D02*
D03*
X6000D02*
D03*
X7000D02*
D03*
X-7000Y9000D02*
D03*
X-6000D02*
D03*
X-5000D02*
D03*
X-4000D02*
D03*
X-0D02*
D03*
X4000D02*
D03*
X7000D02*
D03*
X1000Y13000D02*
D03*
X-0D02*
D03*
X-1000D02*
D03*
X7000Y-3000D02*
D03*
Y-4000D02*
D03*
Y-5000D02*
D03*
Y-6000D02*
D03*
X8000Y-3000D02*
D03*
Y-4000D02*
D03*
Y-5000D02*
D03*
Y-6000D02*
D03*
G54D18*
X-1583Y-11000D02*
D03*
X-4417D02*
D03*
G54D19*
X-7000Y3000D02*
D03*
X-6000D02*
D03*
X-5000D02*
D03*
X-3000Y9000D02*
D03*
X-2000D02*
D03*
X-1000D02*
D03*
X1000D02*
D03*
X2000D02*
D03*
X3000D02*
D03*
X5000D02*
D03*
X6000D02*
D03*
G54D20*
X-7500Y11500D02*
D03*
X7500D02*
D03*
Y-11000D02*
D03*
X-7500D02*
D03*
G54D21*
X906Y-5094D02*
D03*
X3000Y-5000D02*
D03*
M02*
